HIERARCHY
ROOT Hips
{
	OFFSET 0.00000 0.00000 0.00000
	CHANNELS 6 Xposition Yposition Zposition Zrotation Yrotation Xrotation 
	JOINT LHipJoint
	{
		OFFSET 0 0 0
		CHANNELS 3 Zrotation Yrotation Xrotation
		JOINT LeftHip
		{
			OFFSET 1.42489 -1.84941 0.69647
			CHANNELS 3 Zrotation Yrotation Xrotation
			JOINT LeftKnee
			{
				OFFSET 2.44443 -6.71602 0.00000
				CHANNELS 3 Zrotation Yrotation Xrotation
				JOINT LeftAnkle
				{
					OFFSET 2.62838 -7.22137 0.00000
					CHANNELS 3 Zrotation Yrotation Xrotation
					JOINT LeftToe
					{
						OFFSET 0.24036 -0.66037 2.29953
						CHANNELS 3 Zrotation Yrotation Xrotation
						End Site
						{
							OFFSET 0.00000 -0.00000 1.19837
						}
					}
				}
			}
		}
	}
	JOINT RHipJoint
	{
		OFFSET 0 0 0
		CHANNELS 3 Zrotation Yrotation Xrotation
		JOINT RightHip
		{
			OFFSET -1.37055 -1.84941 0.69647
			CHANNELS 3 Zrotation Yrotation Xrotation
			JOINT RightKnee
			{
				OFFSET -2.54834 -7.00152 0.00000
				CHANNELS 3 Zrotation Yrotation Xrotation
				JOINT RightAnkle
				{
					OFFSET -2.65692 -7.29983 0.00000
					CHANNELS 3 Zrotation Yrotation Xrotation
					JOINT RightToe
					{
						OFFSET -0.18839 -0.51760 2.29390
						CHANNELS 3 Zrotation Yrotation Xrotation
						End Site
						{
							OFFSET -0.00000 -0.00000 1.18261
						}
					}
				}
			}
		}
	}
	JOINT lowerback
	{
		OFFSET 0 0 0
		CHANNELS 3 Zrotation Yrotation Xrotation
		JOINT Chest
		{
			OFFSET 0.05220 2.15489 0.05011
			CHANNELS 3 Zrotation Yrotation Xrotation
			JOINT Chest2
			{
				OFFSET -0.07653 2.14219 -0.05668
				CHANNELS 3 Zrotation Yrotation Xrotation
				JOINT lowerneck
				{
					OFFSET 0 0 0
					CHANNELS 3 Zrotation Yrotation Xrotation
					JOINT Neck
					{
						OFFSET 0.01370 1.58638 0.01447
						CHANNELS 3 Zrotation Yrotation Xrotation
						JOINT Head
						{
							OFFSET 0.23548 1.54190 -0.21747
							CHANNELS 3 Zrotation Yrotation Xrotation
							End Site
							{
								OFFSET 0.07132 1.59823 -0.08163
							}
						}
					}
				}
				JOINT LeftCollar
				{
					OFFSET 0 0 0
					CHANNELS 3 Zrotation Yrotation Xrotation
					JOINT LeftShoulder
					{
						OFFSET 3.47056 1.45357 -0.58896
CHANNELS 3 Zrotation Xrotation Yrotation
						JOINT LeftElbow
						{
OFFSET 0 -5.190690 0.000000
CHANNELS 3 Zrotation Xrotation Yrotation
							JOINT LeftWrist
							{
OFFSET 0 -3.300160 0.000000
CHANNELS 3 Zrotation Xrotation Yrotation
								JOINT lhand
								{
									OFFSET 0 0 0
CHANNELS 3 Zrotation Xrotation Yrotation
									JOINT LFingers
									{
OFFSET 0 -0.707700 0.000000
CHANNELS 3 Zrotation Xrotation Yrotation
										End Site
										{
OFFSET 0 -0.570560 0.000000
										}
									}
								}
								JOINT LThumb
								{
OFFSET 0 0.000000 0.000000
CHANNELS 3 Zrotation Xrotation Yrotation
									End Site
									{
OFFSET 0 -0.579280 0.579280
									}
								}
							}
						}
					}
				}
				JOINT RightCollar
				{
					OFFSET 0 0 0
					CHANNELS 3 Zrotation Yrotation Xrotation
					JOINT RightShoulder
					{
						OFFSET -2.89018 2.03305 -0.26731
CHANNELS 3 Zrotation Xrotation Yrotation
						JOINT RightElbow
						{
OFFSET 0 -5.239240 0.000000
CHANNELS 3 Zrotation Xrotation Yrotation
							JOINT RightWrist
							{
OFFSET 0 -3.329530 0.000000
CHANNELS 3 Zrotation Xrotation Yrotation
								JOINT rhand
								{
									OFFSET 0 0 0
CHANNELS 3 Zrotation Xrotation Yrotation
									JOINT RFingers
									{
OFFSET 0 -0.607410 0.000000
CHANNELS 3 Zrotation Xrotation Yrotation
										End Site
										{
OFFSET 0 -0.489710 0.000000
										}
									}
								}
								JOINT RThumb
								{
OFFSET 0 0.000000 0.000000
CHANNELS 3 Zrotation Xrotation Yrotation
									End Site
									{
OFFSET 0 -0.497190 0.497190
									}
								}
							}
						}
					}
				}
			}
		}
	}
}
MOTION
Frames: 5
Frame Time: 0.008333333333333333
9.001110 14.874990 28.773580 -197.954249 -64.831723 199.294264 0.000000 0.000000 0.000000 -18.400557 -4.021454 -41.225712 17.417337 19.839323 82.429322 1.610751 2.215945 -24.864727 1.006050 -6.382191 -17.897384 0.000000 0.000000 0.000000 8.565046 -4.282817 -51.761505 -14.782491 -19.334366 74.580728 -2.519435 -7.617431 -33.423268 -0.004028 0.405893 -1.115344 10.551245 -1.025512 19.302477 6.614057 -3.507744 18.299124 1.638337 -2.257649 9.940410 -5.967671 -5.093002 8.979943 18.721539 -6.502067 -5.250801 6.999229 -3.938696 -2.208201 0.000000 0.000000 0.000000 7.012959 -19.869870 -34.972886 39.487397 -47.763225 18.058769 11.357695 -10.549794 13.125429 0.000000 0.000000 0.000000 -7.125000 0.000000 0.000000 -10.993401 16.754171 -7.498166 0.000000 0.000000 0.000000 -46.812875 -25.869454 20.973583 -61.233948 -56.629892 -35.369745 -9.489678 3.443030 10.172442 0.000000 0.000000 0.000000 7.125000 0.000000 0.000000 15.268515 39.825251 2.001558
8.889794 14.835773 28.660870 -199.555651 -64.953356 200.511760 0.000000 0.000000 0.000000 -19.750710 -5.359063 -43.252953 17.128120 19.801033 81.576382 1.587665 1.812427 -24.523390 1.029191 -6.453200 -18.105080 0.000000 0.000000 0.000000 7.887290 -4.533423 -51.260831 -15.112379 -19.417357 75.574975 -2.739330 -7.058366 -34.343727 -0.001706 0.265178 -0.728668 10.760035 -0.727388 19.524225 7.275423 -3.094086 18.178339 2.228544 -2.097441 9.750527 -6.204022 -5.215436 9.223891 19.048159 -6.672899 -5.297791 7.158503 -4.039550 -2.221346 0.000000 0.000000 0.000000 6.971648 -19.772358 -34.989715 39.537942 -47.793678 18.096231 10.423441 -10.372161 13.000944 0.000000 0.000000 0.000000 -7.125000 0.000000 0.000000 -11.636546 16.934531 -7.908608 0.000000 0.000000 0.000000 -47.482439 -25.862098 20.743198 -60.290554 -56.386765 -34.583014 -9.566742 3.433466 10.220723 0.000000 0.000000 0.000000 7.125000 0.000000 0.000000 15.215195 39.878843 1.973461
8.766147 14.813027 28.554873 -201.626285 -64.910782 202.107289 0.000000 0.000000 0.000000 -21.401510 -6.711231 -44.811016 16.579063 19.716830 79.952280 1.568375 1.223176 -24.142472 1.091992 -6.640643 -18.655101 0.000000 0.000000 0.000000 6.919583 -4.747680 -50.532203 -15.387442 -19.482006 76.400917 -2.902951 -6.713472 -35.051738 -0.006799 0.525893 -1.445079 10.577971 -0.569796 19.652996 7.654664 -2.854490 17.986744 2.729685 -2.028997 9.471263 -6.276528 -5.201365 9.750125 19.325519 -6.673723 -5.216066 7.281207 -4.069354 -2.276526 0.000000 0.000000 0.000000 7.133247 -19.363521 -34.316637 39.417479 -47.720916 18.007061 9.716043 -10.123532 13.132903 0.000000 0.000000 0.000000 -7.125000 0.000000 0.000000 -12.115386 16.844427 -8.273372 0.000000 0.000000 0.000000 -47.518075 -26.009187 21.447616 -59.319431 -56.125779 -33.775364 -10.201949 3.818613 10.493150 0.000000 0.000000 0.000000 7.125000 0.000000 0.000000 14.742288 40.197786 1.790256
8.631654 14.779204 28.468345 -202.939808 -64.731955 203.105997 0.000000 0.000000 0.000000 -22.699372 -8.089352 -46.336993 15.905847 19.592789 77.950734 1.541256 0.331993 -23.609260 1.172728 -6.873629 -19.341430 0.000000 0.000000 0.000000 6.171659 -4.830098 -49.921967 -15.606080 -19.530718 77.055803 -3.028086 -6.558874 -35.637635 -0.018753 0.883698 -2.428956 10.628843 -0.406615 19.680256 8.098912 -2.608181 17.777755 3.171195 -1.939224 9.233340 -6.828969 -5.223364 10.085172 19.773576 -6.773444 -5.137065 7.534471 -4.135542 -2.261690 0.000000 0.000000 0.000000 7.134505 -19.004279 -33.759993 39.401358 -47.711196 17.995071 9.590230 -10.120368 12.787930 0.000000 0.000000 0.000000 -7.125000 0.000000 0.000000 -12.214697 17.192773 -8.249174 0.000000 0.000000 0.000000 -47.676512 -26.066816 21.946588 -58.880271 -56.004067 -33.411026 -9.264179 3.812536 10.673344 0.000000 0.000000 0.000000 7.125000 0.000000 0.000000 15.586363 40.294881 1.860340
8.496454 14.801798 28.374259 -203.106988 -64.578965 203.038244 0.000000 0.000000 0.000000 -23.268805 -9.237042 -47.367068 15.037098 19.398165 75.348005 1.519454 -1.242723 -22.947672 1.239099 -7.056501 -19.883850 0.000000 0.000000 0.000000 6.067322 -4.584398 -48.809162 -15.629055 -19.535679 77.124615 -3.175685 -6.520481 -36.385696 -0.029303 1.103475 -3.033469 10.495831 -0.253778 19.808831 8.583384 -2.425702 17.629764 3.768930 -1.918462 9.019254 -6.472679 -5.249876 9.775113 19.688653 -6.797595 -4.934461 7.426458 -4.129181 -2.163595 0.000000 0.000000 0.000000 7.381305 -18.649288 -32.648937 39.457107 -47.744957 18.036407 9.463813 -10.019442 12.831468 0.000000 0.000000 0.000000 -7.125000 0.000000 0.000000 -12.299477 17.156622 -8.319202 0.000000 0.000000 0.000000 -47.587573 -26.510124 22.911507 -58.571899 -55.917187 -33.155590 -8.825215 3.538462 10.680380 0.000000 0.000000 0.000000 7.125000 0.000000 0.000000 15.961556 40.264323 1.919707
